# xmcd
#
# Track frame offsets:
# 150
# 18280
# 35390
# 48085
# 63845
# 78012
# 92015
# 113275
# 123622
# 139432
#
# Disc length: 2066 seconds
#
#
# Revision: 4
# Processed by: cddbd v1.5.1PL2 Copyright (c) Steve Scherf et al.
# Submitted via: FreeRIP 2.945 
#
DISCID=7108100a
DTITLE=Vern Gosdin - Alone
DYEAR=1989
DGENRE=Country
TTITLE0=That Just About Does It
TTITLE1=Take Me Home To Alabama
TTITLE2=I'm Still Crazy
TTITLE3=Paradise
TTITLE4=Do Me A Favor
TTITLE5=Tanqueray
TTITLE6=Alone
TTITLE7=Right In The Wrong Direction
TTITLE8=I'm Only Going Crazy
TTITLE9=You're Not By Yourself
EXTD=CBS Records, \n
EXTT0=
EXTT1=
EXTT2=
EXTT3=
EXTT4=
EXTT5=
EXTT6=
EXTT7=
EXTT8=
EXTT9=
PLAYORDER=
